<mxfile host="app.diagrams.net" modified="2024-07-22T12:34:35.625Z" agent="Mozilla/5.0 (Windows NT 10.0; Win64; x64) AppleWebKit/537.36 (KHTML, like Gecko) Chrome/126.0.0.0 Safari/537.36" etag="Vv9AzLUNM-VWbL6RNFgY" version="24.6.4" type="device">
  <diagram id="WQocVdNKlPCn76hvvAIr" name="Pagina-1">
    <mxGraphModel dx="1709" dy="901" grid="1" gridSize="10" guides="1" tooltips="1" connect="1" arrows="1" fold="1" page="1" pageScale="1" pageWidth="827" pageHeight="1169" math="0" shadow="0">
      <root>
        <mxCell id="0" />
        <mxCell id="1" parent="0" />
        <mxCell id="mntwqy6oY0zWZ7ipV4xc-6" style="edgeStyle=orthogonalEdgeStyle;rounded=0;orthogonalLoop=1;jettySize=auto;html=1;entryX=0.5;entryY=0;entryDx=0;entryDy=0;" parent="1" source="mntwqy6oY0zWZ7ipV4xc-1" target="mntwqy6oY0zWZ7ipV4xc-5" edge="1">
          <mxGeometry relative="1" as="geometry" />
        </mxCell>
        <mxCell id="mntwqy6oY0zWZ7ipV4xc-1" value="" style="triangle;whiteSpace=wrap;html=1;direction=south;" parent="1" vertex="1">
          <mxGeometry x="205" y="340" width="80" height="60" as="geometry" />
        </mxCell>
        <mxCell id="mntwqy6oY0zWZ7ipV4xc-4" value="input video" style="text;html=1;strokeColor=none;fillColor=none;align=center;verticalAlign=middle;whiteSpace=wrap;rounded=0;" parent="1" vertex="1">
          <mxGeometry x="215" y="340" width="60" height="30" as="geometry" />
        </mxCell>
        <mxCell id="mntwqy6oY0zWZ7ipV4xc-13" style="edgeStyle=orthogonalEdgeStyle;rounded=0;orthogonalLoop=1;jettySize=auto;html=1;entryX=0;entryY=0.5;entryDx=0;entryDy=0;" parent="1" source="mntwqy6oY0zWZ7ipV4xc-5" target="mntwqy6oY0zWZ7ipV4xc-55" edge="1">
          <mxGeometry relative="1" as="geometry" />
        </mxCell>
        <mxCell id="mntwqy6oY0zWZ7ipV4xc-5" value="FlowLimiterCalculator" style="rounded=1;whiteSpace=wrap;html=1;" parent="1" vertex="1">
          <mxGeometry x="180" y="440" width="130" height="60" as="geometry" />
        </mxCell>
        <mxCell id="mntwqy6oY0zWZ7ipV4xc-11" style="edgeStyle=orthogonalEdgeStyle;rounded=0;orthogonalLoop=1;jettySize=auto;html=1;entryX=0.5;entryY=1;entryDx=0;entryDy=0;" parent="1" source="mntwqy6oY0zWZ7ipV4xc-2" target="mntwqy6oY0zWZ7ipV4xc-15" edge="1">
          <mxGeometry relative="1" as="geometry" />
        </mxCell>
        <mxCell id="mntwqy6oY0zWZ7ipV4xc-16" style="edgeStyle=orthogonalEdgeStyle;rounded=0;orthogonalLoop=1;jettySize=auto;html=1;entryX=0;entryY=0.5;entryDx=0;entryDy=0;" parent="1" source="mntwqy6oY0zWZ7ipV4xc-12" target="mntwqy6oY0zWZ7ipV4xc-15" edge="1">
          <mxGeometry relative="1" as="geometry" />
        </mxCell>
        <mxCell id="mntwqy6oY0zWZ7ipV4xc-12" value="Transformation Calculator" style="rounded=1;whiteSpace=wrap;html=1;" parent="1" vertex="1">
          <mxGeometry x="530" y="440" width="150" height="60" as="geometry" />
        </mxCell>
        <mxCell id="mntwqy6oY0zWZ7ipV4xc-32" style="edgeStyle=orthogonalEdgeStyle;rounded=0;orthogonalLoop=1;jettySize=auto;html=1;entryX=0;entryY=0.5;entryDx=0;entryDy=0;fontSize=11;" parent="1" source="mntwqy6oY0zWZ7ipV4xc-15" target="mntwqy6oY0zWZ7ipV4xc-21" edge="1">
          <mxGeometry relative="1" as="geometry" />
        </mxCell>
        <mxCell id="mntwqy6oY0zWZ7ipV4xc-33" style="edgeStyle=orthogonalEdgeStyle;rounded=0;orthogonalLoop=1;jettySize=auto;html=1;entryX=0;entryY=0.5;entryDx=0;entryDy=0;fontSize=11;" parent="1" source="mntwqy6oY0zWZ7ipV4xc-15" target="mntwqy6oY0zWZ7ipV4xc-28" edge="1">
          <mxGeometry relative="1" as="geometry" />
        </mxCell>
        <mxCell id="mntwqy6oY0zWZ7ipV4xc-34" style="edgeStyle=orthogonalEdgeStyle;rounded=0;orthogonalLoop=1;jettySize=auto;html=1;entryX=0;entryY=0.5;entryDx=0;entryDy=0;fontSize=11;" parent="1" source="mntwqy6oY0zWZ7ipV4xc-15" target="mntwqy6oY0zWZ7ipV4xc-27" edge="1">
          <mxGeometry relative="1" as="geometry" />
        </mxCell>
        <mxCell id="mntwqy6oY0zWZ7ipV4xc-15" value="Hand Landmark Tracking Gpu" style="rounded=1;whiteSpace=wrap;html=1;" parent="1" vertex="1">
          <mxGeometry x="700" y="440" width="170" height="60" as="geometry" />
        </mxCell>
        <mxCell id="mntwqy6oY0zWZ7ipV4xc-40" style="edgeStyle=orthogonalEdgeStyle;rounded=0;orthogonalLoop=1;jettySize=auto;html=1;entryX=0.5;entryY=1;entryDx=0;entryDy=0;fontSize=8;" parent="1" source="mntwqy6oY0zWZ7ipV4xc-37" target="mntwqy6oY0zWZ7ipV4xc-15" edge="1">
          <mxGeometry relative="1" as="geometry" />
        </mxCell>
        <mxCell id="mntwqy6oY0zWZ7ipV4xc-50" style="edgeStyle=orthogonalEdgeStyle;rounded=0;orthogonalLoop=1;jettySize=auto;html=1;entryX=0.5;entryY=0;entryDx=0;entryDy=0;fontSize=12;" parent="1" source="mntwqy6oY0zWZ7ipV4xc-41" target="mntwqy6oY0zWZ7ipV4xc-12" edge="1">
          <mxGeometry relative="1" as="geometry" />
        </mxCell>
        <mxCell id="mntwqy6oY0zWZ7ipV4xc-51" style="edgeStyle=orthogonalEdgeStyle;rounded=0;orthogonalLoop=1;jettySize=auto;html=1;fontSize=12;entryX=0.5;entryY=0;entryDx=0;entryDy=0;" parent="1" source="mntwqy6oY0zWZ7ipV4xc-47" target="mntwqy6oY0zWZ7ipV4xc-12" edge="1">
          <mxGeometry relative="1" as="geometry">
            <mxPoint x="686.75" y="410" as="targetPoint" />
          </mxGeometry>
        </mxCell>
        <mxCell id="mntwqy6oY0zWZ7ipV4xc-52" style="edgeStyle=orthogonalEdgeStyle;rounded=0;orthogonalLoop=1;jettySize=auto;html=1;fontSize=12;entryX=0.5;entryY=0;entryDx=0;entryDy=0;" parent="1" source="mntwqy6oY0zWZ7ipV4xc-43" target="mntwqy6oY0zWZ7ipV4xc-12" edge="1">
          <mxGeometry relative="1" as="geometry">
            <mxPoint x="696.75" y="390" as="targetPoint" />
          </mxGeometry>
        </mxCell>
        <mxCell id="mntwqy6oY0zWZ7ipV4xc-53" value="" style="group" parent="1" vertex="1" connectable="0">
          <mxGeometry x="475" y="340" width="260" height="60" as="geometry" />
        </mxCell>
        <mxCell id="mntwqy6oY0zWZ7ipV4xc-45" value="" style="group" parent="mntwqy6oY0zWZ7ipV4xc-53" vertex="1" connectable="0">
          <mxGeometry x="180" width="80" height="60" as="geometry" />
        </mxCell>
        <mxCell id="mntwqy6oY0zWZ7ipV4xc-43" value="" style="triangle;whiteSpace=wrap;html=1;fontSize=12;direction=south;" parent="mntwqy6oY0zWZ7ipV4xc-45" vertex="1">
          <mxGeometry width="80" height="60" as="geometry" />
        </mxCell>
        <mxCell id="mntwqy6oY0zWZ7ipV4xc-44" value="horizontally flipped" style="text;html=1;strokeColor=none;fillColor=none;align=center;verticalAlign=middle;whiteSpace=wrap;rounded=0;fontSize=12;" parent="mntwqy6oY0zWZ7ipV4xc-45" vertex="1">
          <mxGeometry x="10" width="60" height="30" as="geometry" />
        </mxCell>
        <mxCell id="mntwqy6oY0zWZ7ipV4xc-46" value="" style="group" parent="mntwqy6oY0zWZ7ipV4xc-53" vertex="1" connectable="0">
          <mxGeometry x="90" width="80" height="60" as="geometry" />
        </mxCell>
        <mxCell id="mntwqy6oY0zWZ7ipV4xc-47" value="" style="triangle;whiteSpace=wrap;html=1;fontSize=12;direction=south;" parent="mntwqy6oY0zWZ7ipV4xc-46" vertex="1">
          <mxGeometry width="80" height="60" as="geometry" />
        </mxCell>
        <mxCell id="mntwqy6oY0zWZ7ipV4xc-48" value="vertically flipped" style="text;html=1;strokeColor=none;fillColor=none;align=center;verticalAlign=middle;whiteSpace=wrap;rounded=0;fontSize=12;" parent="mntwqy6oY0zWZ7ipV4xc-46" vertex="1">
          <mxGeometry x="10" width="60" height="30" as="geometry" />
        </mxCell>
        <mxCell id="mntwqy6oY0zWZ7ipV4xc-49" value="" style="group" parent="mntwqy6oY0zWZ7ipV4xc-53" vertex="1" connectable="0">
          <mxGeometry width="80" height="60" as="geometry" />
        </mxCell>
        <mxCell id="mntwqy6oY0zWZ7ipV4xc-41" value="" style="triangle;whiteSpace=wrap;html=1;fontSize=12;direction=south;container=1;" parent="mntwqy6oY0zWZ7ipV4xc-49" vertex="1">
          <mxGeometry width="80" height="60" as="geometry" />
        </mxCell>
        <mxCell id="mntwqy6oY0zWZ7ipV4xc-42" value="input rotation" style="text;html=1;strokeColor=none;fillColor=none;align=center;verticalAlign=middle;whiteSpace=wrap;rounded=0;fontSize=12;" parent="mntwqy6oY0zWZ7ipV4xc-49" vertex="1">
          <mxGeometry x="10" width="60" height="30" as="geometry" />
        </mxCell>
        <mxCell id="mntwqy6oY0zWZ7ipV4xc-54" style="edgeStyle=orthogonalEdgeStyle;rounded=0;orthogonalLoop=1;jettySize=auto;html=1;entryX=0.5;entryY=1;entryDx=0;entryDy=0;fontSize=12;" parent="1" source="mntwqy6oY0zWZ7ipV4xc-20" target="mntwqy6oY0zWZ7ipV4xc-5" edge="1">
          <mxGeometry relative="1" as="geometry">
            <Array as="points">
              <mxPoint x="1030" y="470" />
              <mxPoint x="1030" y="630" />
              <mxPoint x="245" y="630" />
            </Array>
          </mxGeometry>
        </mxCell>
        <mxCell id="mntwqy6oY0zWZ7ipV4xc-56" style="edgeStyle=orthogonalEdgeStyle;rounded=0;orthogonalLoop=1;jettySize=auto;html=1;entryX=0;entryY=0.5;entryDx=0;entryDy=0;fontSize=12;" parent="1" source="mntwqy6oY0zWZ7ipV4xc-55" target="mntwqy6oY0zWZ7ipV4xc-12" edge="1">
          <mxGeometry relative="1" as="geometry" />
        </mxCell>
        <mxCell id="mntwqy6oY0zWZ7ipV4xc-55" value="Frame To Gpu Buffer Calculator" style="rounded=1;whiteSpace=wrap;html=1;fontSize=12;" parent="1" vertex="1">
          <mxGeometry x="330" y="440" width="180" height="60" as="geometry" />
        </mxCell>
        <mxCell id="mntwqy6oY0zWZ7ipV4xc-37" value="" style="triangle;whiteSpace=wrap;html=1;rotation=90;direction=west;" parent="1" vertex="1">
          <mxGeometry x="710" y="530" width="60" height="80" as="geometry" />
        </mxCell>
        <mxCell id="mntwqy6oY0zWZ7ipV4xc-38" value="&lt;font style=&quot;font-size: 11px;&quot;&gt;complexity&lt;/font&gt;" style="text;html=1;strokeColor=none;fillColor=none;align=center;verticalAlign=middle;whiteSpace=wrap;rounded=0;fontSize=11;" parent="1" vertex="1">
          <mxGeometry x="710" y="570" width="60" height="30" as="geometry" />
        </mxCell>
        <mxCell id="mntwqy6oY0zWZ7ipV4xc-2" value="" style="triangle;whiteSpace=wrap;html=1;rotation=90;direction=west;" parent="1" vertex="1">
          <mxGeometry x="800" y="530" width="60" height="80" as="geometry" />
        </mxCell>
        <mxCell id="mntwqy6oY0zWZ7ipV4xc-3" value="num hands" style="text;html=1;strokeColor=none;fillColor=none;align=center;verticalAlign=middle;whiteSpace=wrap;rounded=0;" parent="1" vertex="1">
          <mxGeometry x="800" y="560" width="60" height="30" as="geometry" />
        </mxCell>
        <mxCell id="1jzmOC59pX9w_4SDiBCB-6" style="edgeStyle=orthogonalEdgeStyle;rounded=0;orthogonalLoop=1;jettySize=auto;html=1;entryX=0.25;entryY=1;entryDx=0;entryDy=0;" edge="1" parent="1" source="mntwqy6oY0zWZ7ipV4xc-21" target="mntwqy6oY0zWZ7ipV4xc-5">
          <mxGeometry relative="1" as="geometry">
            <Array as="points">
              <mxPoint x="1040" y="370" />
              <mxPoint x="1040" y="640" />
              <mxPoint x="213" y="640" />
            </Array>
          </mxGeometry>
        </mxCell>
        <mxCell id="mntwqy6oY0zWZ7ipV4xc-21" value="" style="triangle;whiteSpace=wrap;html=1;" parent="1" vertex="1">
          <mxGeometry x="910" y="330" width="100" height="80" as="geometry" />
        </mxCell>
        <mxCell id="mntwqy6oY0zWZ7ipV4xc-26" value="handedness" style="text;html=1;strokeColor=none;fillColor=none;align=center;verticalAlign=middle;whiteSpace=wrap;rounded=0;fontSize=12;" parent="1" vertex="1">
          <mxGeometry x="920" y="355" width="60" height="30" as="geometry" />
        </mxCell>
        <mxCell id="mntwqy6oY0zWZ7ipV4xc-20" value="" style="triangle;whiteSpace=wrap;html=1;" parent="1" vertex="1">
          <mxGeometry x="910" y="430" width="100" height="80" as="geometry" />
        </mxCell>
        <mxCell id="mntwqy6oY0zWZ7ipV4xc-28" value="hand landmarks" style="text;html=1;strokeColor=none;fillColor=none;align=center;verticalAlign=middle;whiteSpace=wrap;rounded=0;fontSize=11;" parent="1" vertex="1">
          <mxGeometry x="910" y="455" width="60" height="30" as="geometry" />
        </mxCell>
        <mxCell id="1jzmOC59pX9w_4SDiBCB-5" style="edgeStyle=orthogonalEdgeStyle;rounded=0;orthogonalLoop=1;jettySize=auto;html=1;entryX=0.75;entryY=1;entryDx=0;entryDy=0;" edge="1" parent="1" source="mntwqy6oY0zWZ7ipV4xc-19" target="mntwqy6oY0zWZ7ipV4xc-5">
          <mxGeometry relative="1" as="geometry">
            <Array as="points">
              <mxPoint x="1020" y="570" />
              <mxPoint x="1020" y="620" />
              <mxPoint x="278" y="620" />
            </Array>
          </mxGeometry>
        </mxCell>
        <mxCell id="mntwqy6oY0zWZ7ipV4xc-19" value="" style="triangle;whiteSpace=wrap;html=1;" parent="1" vertex="1">
          <mxGeometry x="910" y="530" width="100" height="80" as="geometry" />
        </mxCell>
        <mxCell id="mntwqy6oY0zWZ7ipV4xc-27" value="hand world landmarks" style="text;html=1;strokeColor=none;fillColor=none;align=center;verticalAlign=middle;whiteSpace=wrap;rounded=0;fontSize=11;" parent="1" vertex="1">
          <mxGeometry x="910" y="555" width="60" height="30" as="geometry" />
        </mxCell>
      </root>
    </mxGraphModel>
  </diagram>
</mxfile>
